Coordinates
version=1
nRows=29
nColumns=24
inDegrees=yes

Units are S.I. units (second, meters, Newtons, ...)
Angles are in degrees.

endheader
time	pelvis_tilt	pelvis_list	pelvis_rotation	pelvis_tx	pelvis_ty	pelvis_tz	hip_flexion_r	hip_adduction_r	hip_rotation_r	knee_angle_r	ankle_angle_r	subtalar_angle_r	mtp_angle_r	hip_flexion_l	hip_adduction_l	hip_rotation_l	knee_angle_l	ankle_angle_l	subtalar_angle_l	mtp_angle_l	lumbar_extension	lumbar_bending	lumbar_rotation
      3.49000000	     -9.86349002	     -3.99171683	      6.70210272	     -1.80633787	     -0.05135135	     -0.27081212	     40.73654572	     -0.32964532	     -6.66937604	    -19.69824015	      0.54615516	      5.88744556	      9.32854379	     -6.20619664	     -1.48093876	     10.90964261	    -18.28473569	     14.45626629	     11.24582594	     13.36932627	      8.21719003	     -0.18170544	    -18.61494767
      3.49500000	     -9.79689778	     -4.35848550	      6.89903562	     -1.79910641	     -0.05208332	     -0.27076726	     40.65899107	     -0.10431654	     -7.05846282	    -20.39873107	      0.17964442	      5.77328703	      9.42724995	     -6.30396083	     -2.00595353	     10.70684033	    -19.04136515	     14.11015874	     11.94174668	     13.94227141	      8.19246998	      0.31677988	    -18.96710523
      3.50000000	     -9.79922701	     -4.76523472	      7.05758624	     -1.79179129	     -0.05282686	     -0.27065307	     40.64463082	      0.17688365	     -7.42964419	    -21.09622040	     -0.28731541	      5.63917476	      9.55509786	     -6.28703383	     -2.58419166	     10.37975711	    -19.85604973	     13.70340222	     12.77063786	     14.67192535	      8.26003832	      0.85405437	    -19.24477935
      3.50500000	     -9.79904647	     -5.12956767	      7.13953787	     -1.78448025	     -0.05347758	     -0.27041423	     40.64655946	      0.47446752	     -7.74253628	    -21.82868308	     -0.89829793	      5.43898829	      9.72412332	     -6.26684047	     -3.14717105	      9.82802315	    -20.65699882	     13.18625418	     13.81820592	     15.60597456	      8.30995926	      1.35951905	    -19.49344662
      3.51000000	     -9.84657652	     -5.51938722	      7.21311818	     -1.77713882	     -0.05406672	     -0.27016224	     40.68305154	      0.79682039	     -8.03536297	    -22.53886088	     -1.57194804	      5.22333503	      9.85695428	     -6.15328709	     -3.74596193	      9.24297168	    -21.51238350	     12.56997595	     14.91509881	     16.59073944	      8.41732733	      1.88676752	    -19.70932103
      3.51500000	     -9.91500287	     -5.90768548	      7.23308143	     -1.76975898	     -0.05456786	     -0.26978515	     40.73854590	      1.16208926	     -8.26236944	    -23.24181219	     -2.30126024	      4.95646124	      9.95630633	     -5.98858737	     -4.37088097	      8.51946228	    -22.40133743	     11.82256543	     16.17007595	     17.72147139	      8.54920724	      2.40813131	    -19.87250621
      3.52000000	     -9.98463912	     -6.28230248	      7.17456290	     -1.76235720	     -0.05495602	     -0.26927746	     40.79054127	      1.58416987	     -8.37900177	    -23.92586280	     -3.10090721	      4.58111327	     10.01706109	     -5.81810545	     -5.00191221	      7.69129099	    -23.27908598	     10.88687062	     17.46800573	     19.11392232	      8.67231907	      2.92684984	    -19.91513099
      3.52500000	    -10.11836375	     -6.67283256	      7.16662187	     -1.75497109	     -0.05530723	     -0.26881136	     40.89189128	      1.97915306	     -8.50100395	    -24.59371276	     -3.79670729	      4.30295582	      9.96589155	     -5.48932010	     -5.67295259	      6.83233683	    -24.28556285	      9.89455065	     18.93319805	     20.38381559	      8.86694137	      3.43243840	    -20.10274913
      3.53000000	    -10.23324834	     -7.03487769	      7.08290963	     -1.74750829	     -0.05552238	     -0.26818263	     40.95263236	      2.43837086	     -8.46105485	    -25.22886150	     -4.49333068	      3.83103362	      9.80824663	     -5.18416586	     -6.34973668	      5.84396123	    -25.26415199	      8.64845243	     20.45465054	     21.92246758	      9.03905144	      3.91748722	    -20.14999096
      3.53500000	    -10.40614679	     -7.41472726	      6.96583293	     -1.74002283	     -0.05572858	     -0.26753005	     41.08279688	      2.90222766	     -8.52806132	    -25.87811459	     -5.11876154	      3.52934238	      9.62379173	     -4.77799501	     -7.05428195	      4.86742689	    -26.31631561	      7.34433768	     22.07829832	     23.31775837	      9.27842405	      4.41764691	    -20.16705519
      3.54000000	    -10.48431266	     -7.76030502	      6.79663319	     -1.73251512	     -0.05571071	     -0.26669431	     41.04904695	      3.46771746	     -8.28192077	    -26.41785068	     -5.70679154	      2.84750048	      9.21509342	     -4.47445744	     -7.74834222	      3.88116929	    -27.30208917	      5.57433705	     23.41995337	     25.45282886	      9.39595069	      4.88535784	    -20.11925671
      3.54500000	    -10.63713889	     -8.07621770	      6.65048579	     -1.72501967	     -0.05575444	     -0.26586809	     41.09996667	      3.95317241	     -8.15737866	    -26.99113899	     -6.08920547	      2.39565305	      8.91320416	     -4.01924269	     -8.43016277	      2.91687578	    -28.41788288	      3.80413172	     24.98385599	     27.18457582	      9.59463055	      5.29834985	    -20.11014426
      3.55000000	    -10.76939759	     -8.37257097	      6.48329356	     -1.71749705	     -0.05572903	     -0.26497811	     41.09487895	      4.45850164	     -7.97212070	    -27.51854305	     -6.34022282	      1.91615880	      8.63865776	     -3.55882845	     -9.10208015	      2.00231669	    -29.56684483	      1.84852726	     26.47943988	     28.90108642	      9.77006556	      5.68868454	    -20.07170894
      3.55500000	    -10.87209889	     -8.60550870	      6.31114423	     -1.70998764	     -0.05562408	     -0.26401864	     41.03727368	      4.92693183	     -7.77728625	    -28.03423541	     -6.42802202	      1.43438316	      8.41577345	     -3.11447205	     -9.70579457	      1.21491715	    -30.70957978	     -0.32620128	     27.87811525	     30.67612815	      9.90163601	      5.99886705	    -19.99468851
      3.56000000	    -11.02436825	     -8.89718514	      6.12724289	     -1.70246727	     -0.05560493	     -0.26307942	     40.99465855	      5.45128258	     -7.55915407	    -28.48155633	     -6.39242543	      1.04205884	      8.35658553	     -2.53797611	    -10.36617474	      0.47298755	    -32.00650814	     -2.47382702	     29.19210455	     31.98960887	     10.10228956	      6.37049789	    -19.94936137
      3.56500000	    -11.14908660	     -9.14788087	      5.93563637	     -1.69499728	     -0.05554669	     -0.26209137	     40.90493741	      5.95095152	     -7.36435445	    -28.91388543	     -6.22757184	      0.66475617	      8.39042085	     -1.95801473	    -10.97074052	     -0.14276210	    -33.33202673	     -4.75083117	     30.35182867	     33.23625491	     10.26223603	      6.69641877	    -19.85425786
      3.57000000	    -11.27018717	     -9.37998171	      5.74391830	     -1.68759545	     -0.05549062	     -0.26110340	     40.79091078	      6.42959929	     -7.19405958	    -29.32231728	     -5.93940073	      0.35904781	      8.53530551	     -1.33213027	    -11.53336794	     -0.62695294	    -34.72344077	     -7.04483463	     31.35587370	     34.23317796	     10.40983247	      6.99841984	    -19.73940572
      3.57500000	    -11.39547848	     -9.61707603	      5.54252464	     -1.68024964	     -0.05545828	     -0.26012001	     40.65972096	      6.90826530	     -7.06096796	    -29.69921130	     -5.54524752	      0.14088683	      8.77726776	     -0.65022714	    -12.07786481	     -1.01433167	    -36.19097508	     -9.28469681	     32.18575336	     34.91794578	     10.55605316	      7.30543068	    -19.59784777
      3.58000000	    -11.52101108	     -9.87438192	      5.32179286	     -1.67294309	     -0.05542163	     -0.25916711	     40.50091847	      7.40396504	     -6.97254111	    -30.02674314	     -5.09682553	     -0.02102759	      9.10950246	      0.07674137	    -12.60994784	     -1.31740698	    -37.71026500	    -11.50917388	     32.68636242	     35.45536862	     10.70837876	      7.64406787	    -19.41721529
      3.58500000	    -11.58360639	    -10.13816560	      5.10480745	     -1.66571592	     -0.05535540	     -0.25826527	     40.25265088	      7.89704323	     -6.92254825	    -30.32964227	     -4.47465410	     -0.00067942	      9.42482720	      0.79365700	    -13.13240362	     -1.56019622	    -39.33961269	    -13.47333906	     33.06651259	     35.34633540	     10.78520956	      7.99907843	    -19.23655501
      3.59000000	    -11.70907629	    -10.44435193	      4.85985507	     -1.65855558	     -0.05533677	     -0.25730575	     40.04742554	      8.43177098	     -6.89746319	    -30.57196739	     -3.90150393	      0.01675194	      9.75166657	      1.62883131	    -13.67933110	     -1.73638942	    -41.00677483	    -15.36136156	     33.26727207	     35.29461760	     10.93092605	      8.38910937	    -19.00943667
      3.59500000	    -11.94250094	    -10.72334965	      4.60960402	     -1.65152651	     -0.05539154	     -0.25629160	     39.94724965	      8.91679281	     -6.90406289	    -30.78732541	     -3.38227724	      0.02516279	     10.22609315	      2.63579814	    -14.15850070	     -1.78606617	    -42.68548890	    -17.21255973	     33.25199197	     35.42127628	     11.18516309	      8.72415083	    -18.76248697
      3.60000000	    -11.98980645	    -11.04023183	      4.33150156	     -1.64450793	     -0.05523794	     -0.25538052	     39.59817850	      9.47065589	     -6.90550991	    -30.92151545	     -2.75354894	      0.20067706	     10.59869279	      3.45372033	    -14.68559335	     -1.93691448	    -44.39142074	    -18.81495704	     32.96657727	     35.20119009	     11.22929310	      9.14966900	    -18.47204350
      3.60500000	    -12.19242211	    -11.30962898	      4.06366184	     -1.63764175	     -0.05520621	     -0.25447944	     39.41655619	      9.91969770	     -6.98946368	    -31.05027006	     -2.18388620	      0.44494999	     11.19253505	      4.51060244	    -15.11632106	     -1.96954293	    -46.12987448	    -20.29867598	     32.41073980	     35.04977309	     11.43247465	      9.49370388	    -18.19237549
      3.61000000	    -12.23282619	    -11.65765862	      3.75330415	     -1.63068697	     -0.05497648	     -0.25353992	     38.99939847	     10.50915035	     -7.02252635	    -31.07119903	     -1.57978448	      0.70588627	     11.56904528	      5.37539965	    -15.66600864	     -2.10904215	    -47.83489902	    -21.50306827	     31.78255117	     34.81141431	     11.46918355	      9.95098742	    -17.82132616
      3.61500000	    -12.30856129	    -11.97369235	      3.45614572	     -1.62383592	     -0.05472537	     -0.25264082	     38.60184910	     11.04248192	     -7.08207277	    -31.05860117	     -1.00299150	      1.00707916	     11.97075397	      6.32484990	    -16.16204779	     -2.21032330	    -49.54170663	    -22.49806338	     30.90201837	     34.57064212	     11.53407912	     10.36381588	    -17.45749342
      3.62000000	    -12.43836713	    -12.20628143	      3.17535796	     -1.61711894	     -0.05443847	     -0.25184357	     38.25727994	     11.45694517	     -7.17303823	    -31.04448781	     -0.47971613	      1.34502424	     12.50339269	      7.37495454	    -16.51549514	     -2.21830011	    -51.23005892	    -23.29966051	     29.72587064	     34.28507424	     11.63993945	     10.68966753	    -17.07018665
      3.62500000	    -12.52389750	    -12.44748966	      2.88044773	     -1.61033583	     -0.05406521	     -0.25099768	     37.80592188	     11.91646444	     -7.16662710	    -30.93163230	      0.04425153	      1.66735030	     13.06730740	      8.37435411	    -16.91088983	     -2.30566436	    -52.86919972	    -23.81482267	     28.49319621	     34.05334352	     11.71051625	     11.01373462	    -16.70701579
      3.63000000	    -12.52072114	    -12.75425160	      2.56812391	     -1.60351632	     -0.05357607	     -0.25010041	     37.22846549	     12.47511806	     -7.15715263	    -30.75864612	      0.53601114	      1.93536697	     13.37240168	      9.27501745	    -17.40853057	     -2.43507038	    -54.45257463	    -24.03658219	     27.24290456	     33.97056604	     11.68817596	     11.42139269	    -16.28186788
